<svg xmlns="http://www.w3.org/2000/svg" width="12" height="14" viewBox="0 0 12 14" fill="none">
    <g clip-path="url(#clip0_1_88)">
        <path d="M3 10.7371C3 11.316 3.45 11.7897 4 11.7897H8C8.55 11.7897 9 11.316 9 10.7371V5.47392C9 4.89497 8.55 4.42129 8 4.42129H4C3.45 4.42129 3 4.89497 3 5.47392V10.7371ZM4.5 5.47392H7.5C7.775 5.47392 8 5.71076 8 6.00024V10.2108C8 10.5002 7.775 10.7371 7.5 10.7371H4.5C4.225 10.7371 4 10.5002 4 10.2108V6.00024C4 5.71076 4.225 5.47392 4.5 5.47392ZM7.75 2.84234L7.395 2.46866C7.305 2.37392 7.175 2.31602 7.045 2.31602H4.955C4.825 2.31602 4.695 2.37392 4.605 2.46866L4.25 2.84234H3C2.725 2.84234 2.5 3.07918 2.5 3.36866C2.5 3.65813 2.725 3.89497 3 3.89497H9C9.275 3.89497 9.5 3.65813 9.5 3.36866C9.5 3.07918 9.275 2.84234 9 2.84234H7.75Z" fill="white"/>
    </g>
    <defs>
        <clipPath id="clip0_1_88">
            <rect width="12" height="12.6316" fill="white" transform="translate(0 0.737076)"/>
        </clipPath>
    </defs>
</svg>